# xmcd
#
# Track frame offsets:
#	151
#	17022
#	54425
#	73427
#	95600
#	114755
#	139747
#	163324
#	181498
#	209862
#
# Disc length: 2947 seconds
#
# Revision: 1
# Processed by: cddbd v1.5.2PL0 Copyright (c) Steve Scherf et al.
# Submitted via: EasyCDDAExtractor 5.0.2.1
#
DISCID=970b810a
DTITLE=Flat Earth Society - Trap
DYEAR=2002
DGENRE=Jazz
TTITLE0=Mixture
TTITLE1=Trap
TTITLE2=The Carmen
TTITLE3=Foreign Accents
TTITLE4=Servus sagt die schöne Stadt der Lieder
TTITLE5=Zonk
TTITLE6=Woeful Message from the VLF
TTITLE7=O.P.E.N.E.R.
TTITLE8=Marche des Lames
TTITLE9=Mr. Monotony
EXTD=YEAR: 2002
EXTT0=
EXTT1=
EXTT2=
EXTT3=
EXTT4=
EXTT5=
EXTT6=
EXTT7=
EXTT8=
EXTT9=
PLAYORDER=
